<svg width="1082" height="139" viewBox="0 0 1082 139" fill="none" xmlns="http://www.w3.org/2000/svg">
<path d="M1070.31 19.9089C1076.33 19.9089 1081.28 24.8516 1081.28 30.879C1081.28 37.0258 1076.33 41.9673 1070.31 41.9673C1064.16 41.9673 1059.22 37.0258 1059.22 30.879C1059.22 24.8516 1064.16 19.9089 1070.31 19.9089Z" fill="white"/>
<path d="M578.815 0.821442C574.174 -0.0571747 572.028 0.409256 568.51 1.5C556.693 5.16275 550.66 17.8202 548.049 29.0182L547.331 31.6492C542.284 55.8229 533.09 96.0889 527.435 120.124C526.544 122.808 525.856 125.581 524.722 128.18C524.071 129.677 521.851 134.245 519.548 135.452C518.531 135.985 517.276 135.31 516.917 134.219L510.819 115.677L510.32 115.34L502.43 135.892C504.762 137.197 507.243 138.318 509.961 138.54C536.527 140.708 544.97 106.233 549.025 86.2011C551.627 73.3447 559.243 44.596 561.918 31.7529C561.918 31.7529 563.557 22.0711 564.399 18.682C565.534 14.1093 568.201 3.4091 573.655 2.57387C576.334 2.16409 579.164 4.29015 581.745 8.81946C581.825 8.96048 581.919 9.13763 582.025 9.34494C585.108 15.376 584.262 22.675 580.045 27.9768L574.039 35.5277L603.245 24.4419C594.251 12.569 585.81 2.14601 578.815 0.821442Z" fill="white"/>
<path d="M39.2512 61.8567C46.8454 61.8567 51.5447 57.1562 51.5447 50.4057C51.5447 43.6551 46.8454 38.9546 39.2512 38.9546H19.2417V61.8567H39.2512ZM0.679688 22.321H39.4922C56.9695 22.321 70.1091 32.9272 70.1091 50.4057C70.1091 67.8829 56.9695 78.4903 39.4922 78.4903H19.2417V110.915H0.679688V22.321Z" fill="white"/>
<path d="M116.286 72.8244C116.045 65.4724 111.465 60.2886 103.751 60.2886C97 60.2886 91.0943 64.3877 89.648 72.8244H116.286ZM70.8438 79.575C70.8438 59.8078 84.7065 45.8245 103.51 45.8245C122.674 45.8245 135.21 59.0834 135.21 78.2492C135.21 80.4199 135.091 82.2265 134.729 84.8781H89.5275C90.7327 94.5213 97.4833 98.2587 105.56 98.2587C114.237 98.2587 118.456 94.0392 121.591 87.2898L134.005 98.7396C127.617 107.298 116.89 112.722 104.956 112.722C84.3449 112.722 70.8438 98.7396 70.8438 79.575Z" fill="white"/>
<path d="M142.453 48.2355H160.171V55.831C164.15 49.2009 170.417 45.825 179.097 45.825C194.042 45.825 201.878 55.831 201.878 74.9956V110.916H184.159V77.5266C184.159 66.5576 181.025 62.2188 173.189 62.2188C164.632 62.2188 160.171 68.245 160.171 78.0087V110.916H142.453V48.2355Z" fill="white"/>
<path d="M242.152 93.4366C251.313 93.4366 258.064 86.8066 258.064 77.5262C258.064 68.2446 251.313 61.6157 242.152 61.6157C232.871 61.6157 226.121 68.2446 226.121 77.5262C226.121 86.8066 232.871 93.4366 242.152 93.4366ZM208.281 121.522L223.108 112.12C225.639 119.715 231.786 123.933 240.464 123.933C250.952 123.933 257.46 117.664 257.46 107.78V104.767C252.639 107.419 246.973 109.107 240.947 109.107C222.265 109.107 208.402 95.6073 208.402 77.5262C208.402 59.3257 222.265 45.8246 240.947 45.8246C248.42 45.8246 255.291 48.2351 260.715 52.2136L275.178 48.2351V108.986C275.178 127.187 261.68 138.638 240.224 138.638C224.313 138.638 212.983 132.491 208.281 121.522Z" fill="white"/>
<path d="M284.469 87.8929V48.2355H302.187V85.7222C302.187 93.6781 305.441 97.5349 312.192 97.5349C320.749 97.5349 324.969 91.1471 324.969 82.3475V48.2355H342.687V110.916H324.969V104.526C320.99 110.312 314.843 112.722 307.731 112.722C293.389 112.722 284.469 103.321 284.469 87.8929Z" fill="white"/>
<path d="M352.34 48.2355H370.058V110.916H352.34V48.2355ZM361.26 19.9086C367.288 19.9086 372.23 24.8525 372.23 30.8788C372.23 37.0255 367.288 41.967 361.26 41.967C355.113 41.967 350.172 37.0255 350.172 30.8788C350.172 24.8525 355.113 19.9086 361.26 19.9086Z" fill="white"/>
<path d="M379.703 48.2355H397.421V55.831C401.4 49.2009 407.667 45.825 416.347 45.825C431.292 45.825 439.128 55.831 439.128 74.9956V110.916H421.409V77.5266C421.409 66.5576 418.275 62.2188 410.439 62.2188C401.882 62.2188 397.421 68.245 397.421 78.0087V110.916H379.703V48.2355Z" fill="white"/>
<path d="M445.406 94.642L462.04 87.5311C462.642 96.4511 469.03 99.1027 475.901 99.1027C480.602 99.1027 485.062 96.9332 485.062 93.4368C485.062 82.2268 446.972 91.87 446.972 66.7984C446.972 54.6255 459.388 45.8247 473.972 45.8247C489.642 45.8247 500.37 52.6959 503.144 63.6636L486.509 69.8128C486.147 62.9417 481.326 59.4464 473.972 59.4464C468.308 59.4464 465.053 61.7364 465.053 65.5932C465.053 75.839 503.866 66.919 503.866 92.2316C503.866 106.696 490.607 112.723 475.901 112.723C459.99 112.723 447.817 106.817 445.406 94.642Z" fill="white"/>
<path d="M829.142 61.8552C836.736 61.8552 841.437 57.1548 841.437 50.4042C841.437 43.656 836.736 38.9531 829.142 38.9531H809.132V61.8552H829.142ZM790.57 22.3195H829.383C846.86 22.3195 860 32.9269 860 50.4042C860 67.8815 846.86 78.4888 829.383 78.4888H809.132V110.914H790.57V22.3195Z" fill="white"/>
<path d="M866.039 22.319H883.757V110.913H866.039V22.319Z" fill="white"/>
<path d="M893.047 87.8917V48.2355H910.765V85.721C910.765 93.6769 914.019 97.5349 920.77 97.5349C929.327 97.5349 933.547 91.1458 933.547 82.3463V48.2355H951.265V110.914H933.547V104.525C929.568 110.312 923.421 112.722 916.309 112.722C901.967 112.722 893.047 103.32 893.047 87.8917Z" fill="white"/>
<path d="M960.562 92.1105V38.4722L978.16 22.3195H978.281V48.2347H996.843V64.2669H978.281V94.6415H996.843V110.914H979.366C966.107 110.914 960.562 105.369 960.562 92.1105Z" fill="white"/>
<path d="M1035.41 96.2074C1045.18 96.2074 1052.29 89.0964 1052.29 79.3339C1052.29 69.569 1045.18 62.4569 1035.41 62.4569C1025.65 62.4569 1018.54 69.569 1018.54 79.3339C1018.54 89.0964 1025.65 96.2074 1035.41 96.2074ZM1000.58 79.3339C1000.58 60.0464 1015.65 45.8245 1035.41 45.8245C1055.18 45.8245 1070.25 60.0464 1070.25 79.3339C1070.25 98.4974 1055.18 112.722 1035.41 112.722C1015.65 112.722 1000.58 98.4974 1000.58 79.3339Z" fill="white"/>
<path d="M672.805 110.973L685.98 55.1245C685.974 54.44 686.162 53.6204 685.485 53.2106C682.623 51.6631 679.435 50.7001 676.547 49.2248C676.23 49.0633 675.773 48.9296 675.678 48.5403L703.447 46.6263L697.221 73.1755C699.964 66.0959 703.806 59.1043 709.187 53.6746C714.391 48.4258 723.38 43.5493 730.239 48.9175C737.495 54.5966 732.347 65.0895 730.742 72.2197L734.206 64.8003C738.609 55.7633 751.161 42.4092 762.264 47.7774C770.952 51.9776 766.879 63.9879 764.853 71.0241C762.653 78.6666 759.468 86.4754 757.572 94.1275C756.698 97.6529 754.904 103.912 760.764 103.058C766.736 102.187 769.522 90.0044 771.137 85.4244C771.273 85.0375 771.011 84.7832 771.677 84.9014C770.35 93.2513 767.523 102.303 760.779 107.858C751.587 115.431 738.757 113.019 740.86 98.9593C742.382 88.7834 747.953 77.1143 750.729 66.9576C751.452 64.3121 753.973 56.3394 750.138 55.3487C742.024 53.254 734.774 66.484 732.303 72.4668C727.275 84.6495 724.736 98.2422 721.403 110.973H706.32L718.502 60.1106C719.287 54.1013 714.498 54.4086 710.557 56.7179C701.293 62.1463 696.103 79.5862 693.273 89.4439C691.233 96.5525 689.647 103.795 687.887 110.973H672.805Z" fill="white"/>
<path d="M644.01 48.8316C640.647 49.5125 636.815 55.4496 635.326 58.335C629.899 68.8616 623.944 94.9684 628.103 106.002C630.082 111.255 634.807 111.281 638.578 107.754C648.003 98.9397 653.475 69.6365 651.972 57.2731C651.409 52.6414 649.724 47.6733 644.01 48.8316ZM661.468 52.4497C670.171 60.79 669.261 76.4703 665.386 86.9366C659.956 101.602 646.488 114.063 629.861 111.9C604.198 108.56 607.859 75.3325 620.142 59.9078C629.525 48.1229 649.183 40.6757 661.468 52.4497Z" fill="white"/>
<path d="M592.564 58.4244L586.383 71.9798L592.126 46.625L576.515 47.6796L574.645 55.5909L562.68 110.973H577.762C578.743 105.6 579.945 100.249 581.23 94.9422C583.862 84.0672 586.551 72.4402 592.411 62.8175C593.345 61.2833 597.338 54.9726 599.551 56.3092L605.169 73.1742L614.288 48.2967C604.384 43.1166 597.15 50.3179 592.564 58.4244Z" fill="white"/>
<path d="M578.815 0.821442C574.174 -0.0571747 572.028 0.409256 568.51 1.5C556.693 5.16275 550.66 17.8202 548.049 29.0182L547.331 31.6492C542.284 55.8229 533.09 96.0889 527.435 120.124C526.544 122.808 525.856 125.581 524.722 128.18C524.071 129.677 521.851 134.245 519.548 135.452C518.531 135.985 517.276 135.31 516.917 134.219L510.819 115.677L510.32 115.34L502.43 135.892C504.762 137.197 507.243 138.318 509.961 138.54C536.527 140.708 544.97 106.233 549.025 86.2011C551.627 73.3447 559.243 44.596 561.918 31.7529C561.918 31.7529 563.557 22.0711 564.399 18.682C565.534 14.1093 568.201 3.4091 573.655 2.57387C576.334 2.16409 579.164 4.29015 581.745 8.81946C581.825 8.96048 581.919 9.13763 582.025 9.34494C585.108 15.376 584.262 22.675 580.045 27.9768L574.039 35.5277L603.245 24.4419C594.251 12.569 585.81 2.14601 578.815 0.821442Z" fill="white"/>
<path d="M545.897 46.2523L519.438 64.918H543.805" fill="white"/>
</svg>
